<svg xmlns="http://www.w3.org/2000/svg" id="artwork" viewBox="0 0 1000 1000"><defs><style>.cls-2,.cls-3,.cls-4,.cls-5,.cls-6{fill:none}.cls-7{fill:#f15d22}.cls-2{stroke-width:3.5px}.cls-2,.cls-3,.cls-4{stroke:#3d3d3d}.cls-2,.cls-3,.cls-4,.cls-5{stroke-miterlimit:10}.cls-3{stroke-width:1.75px}.cls-4{stroke-width:1.5px}.cls-5,.cls-6{stroke:#f15d22;stroke-linecap:round;stroke-width:2.5px}.cls-5{stroke-dasharray:12 8 0 0 0 0}.cls-6{stroke-linejoin:round}</style></defs><circle cx="500" cy="500" r="480" fill="#171717"/><g><path d="M888.253 269.47c-4.128 7.697-24.866 38.513-36.377 49.726-15.36 14.96-32.002 23.28-44.668 29.494-16.46 8.078-25.458 10.115-43.154 21.384-11.127 7.087-16.865 12.201-18.927 19.909-2.947 11.02 3.248 21.26 3.786 22.12 4.205 6.735 7.887 6.19 13.627 13.273 5.457 6.734 7.097 13.356 9.085 21.384 3.026 12.218 5.62 22.69 0 32.444-1.032 1.792-5.868 10.184-14.384 11.798-9.045 1.714-14.145-5.753-19.685-2.95-4.487 2.272-2.516 7.87-7.57 18.435-2.503 5.232-7.417 15.504-14.385 16.222-8.622.888-11.751-13.74-21.955-14.01-8.345-.222-15.946 9.302-18.928 16.96-3.42 8.783.148 12.78 0 23.595-.306 22.555-16.109 26.16-15.898 46.454.143 13.832 7.609 24.26 11.356 29.495 8.385 11.713 21.088 26.885 33.045 33.164 24.128 12.671 45.7 19.902 50.659 21.367 12.16 3.592 19.67 6.535 27.913 8.49 4.515 1.07 11.962 2.29 16.516 10.565 4.318 7.847-.785 13.546 2.132 19.04 6.336 11.932 26.22 4.934 43.107 4.706 8.994-.122 57.43 3.694 59.804 21.668" class="cls-3"/><path d="M927.91 311.85c-20.122-22.382-54.938 8.366-66.673 20.732-9.49 10-18.461 16.203-32.318 23.854-14.81 8.178-31.387 14.866-33.492 15.71-4.624 1.852-14.12 5.53-25.267 12.799-10.138 6.611-11.982 9.894-12.34 12.8-.544 4.429 2.477 7.048 9.402 16.872 4.4 6.241 8.705 12.35 11.752 18.618 6.095 12.54 6.39 24.151 6.464 29.09.106 7.116.238 15.972-4.701 25.6-2.93 5.711-6.029 11.751-12.34 13.964-8.157 2.86-14.905-3.052-20.565 1.163-1.777 1.323-2.095 2.637-4.113 7.564-5.512 13.453-8.268 20.18-12.927 23.854-4.432 3.495-11.017 5.627-17.04 4.654-5.013-.81-5.993-3.18-15.278-6.981-7.227-2.959-11.368-4.654-13.515-2.91-2.77 2.253.732 7.846 1.176 18.619.398 9.676-1.934 17.147-2.938 20.363-4.192 13.425-9.695 13.668-11.165 23.272-1.65 10.785 3.846 19.903 5.876 23.273 5.277 8.754 11.21 19.563 22.414 26.341 7.027 4.251 12.715 6.713 24.092 11.637 10.214 4.42 12.881 7.687 20.476 9.783 11.95 3.299 18.359-1.86 25.89-.313 3.845.79 11.643 2.242 19.946 10.733 9.437 9.65 12.943 20.8 13.514 22.69 2.566 8.482 1.166 11.733 4.701 15.127 3.98 3.821 9.636 3.43 20.566 2.91 6.65-.317 67.285-1.223 93.514-16.942" class="cls-3"/><path d="M389.814 678.006c-.988 9.592-8.277 10.362-13.094 22.053-5.91 14.345.72 23.727-4.824 27.567-7.652 5.3-25.347-9.074-26.877-10.338-3.805-3.142-22.015-18.179-17.918-32.39 1.85-6.417 7.895-9.791 19.985-16.54 15.097-8.427 26.152-14.597 34.458-9.648 6.194 3.69 8.977 12.439 8.27 19.296Z" class="cls-2"/><path d="M360.18 673.871c-10.159-2.268-21.306 10.61-19.51 16.267.985 3.106-1.6 7.616 3.072 12.318 6.09 6.13 10.943 7.666 13.813 8.352 4.587 1.096 17.458-15.324 12.274-27.978-.278-.678-3.2-7.52-9.649-8.959Z" class="cls-3"/><path d="M274.039 798.108c-11.716 2.966-17.876 14.918-13.996 24.474 3.025 7.453 11.63 12.15 19.994 11.784 11.523-.503 22.164-10.596 19.994-21.755-2.03-10.443-14.427-17.432-25.992-14.503Z" class="cls-4"/><path d="M179.753 546.55c-7.563 1.38-11.421 10.452-13.376 15.049-6.134 14.422-4.24 28.697-2.787 35.67.374 1.794 4.342 11.438 12.262 30.653 15.61 37.872 8.466 19.107 9.474 21.736 4.37 11.399 5.118 15.782 9.475 17.835 5.245 2.471 13.231.394 16.72-4.459 3.459-4.809 1.296-10.672-3.344-26.752-4.956-17.178-7.434-25.768-8.917-33.44-4.415-22.844-5.573-36.785-5.573-36.785-.544-6.538-1.009-15.108-6.689-18.392-3.051-1.764-6.355-1.277-7.245-1.115Z" class="cls-3"/><path d="M897.826 391.247c-26.26-3.164-47.176 26.066-49.623 29.583-7.58 10.895-10.564 22.998-16.223 46.76-8.895 37.35-4.439 41.334-12.406 54.395-13.349 21.883-38.176 30.893-47.715 34.354-29.257 10.618-46.629 3.225-51.531 13.36-4.874 10.077 6.233 29.909 21.948 37.218 19.784 9.201 32.616-8.074 52.486.954 14.671 6.666 10.575 17.4 32.446 32.446 8.228 5.66 18.891 12.784 33.4 12.406 1.53-.04 15.16-.572 26.72-9.543 10.73-8.326 14.73-20.083 20.995-64.892 6.832-48.865 10.248-73.297 7.635-86.84-4.819-24.974-14.307-36.703-7.635-55.35 5.08-14.194 15.423-20.937 12.406-30.537-2.78-8.845-14.77-13.335-22.903-14.314Z" class="cls-2"/><path d="M860.609 509.58c-6.72 2.174-10.668 8.01-22.903 44.85-10.538 31.731-10.738 36.82-7.635 40.081 5.86 6.16 21.182 3.368 30.538-3.817 3.81-2.927 7.327-7.117 15.268-35.309 9.206-32.68 7.518-37.84 4.772-41.034-4.484-5.216-13.297-6.954-20.04-4.772ZM380.954 418.184c-.457-5.325-3.857-8.137-18.573-20.43-28.8-24.057-29.288-24.572-37.147-30.646-16.266-12.572-23.852-17.844-35.29-21.36-9.169-2.819-13.583-2.286-15.787-1.857-11.65 2.266-13.143 11.665-24.145 17.645-8.447 4.59-10.585 3.036-34.71 2.878-6.16-.04-18.693 5.5-34.591 7.461-25.665 3.165-31.895 1.89-56.999 5.448-27.64 3.918-33.483-1.685-41.79 5.572-4.97 4.342-6.321 9.356-13.001 46.434-3.535 19.616-5.302 29.425-5.572 31.574-1.777 14.12-3.323 35.586 0 69.65 6.78 69.507 27.118 122.622 33.432 138.373 4.645 11.588 15.314 36.92 36.218 64.078 15.381 19.983 24.204 25.233 29.718 27.86 15.955 7.6 26.706 3.943 55.72 3.715 28.127-.222 47.125-.372 66.864 6.5 3.35 1.167 54.012 19.444 57.578 52.006 3.002 27.413-29.896 41.933-23.217 63.15 3.378 10.73 16.537 15.967 42.719 26.002 38.956 14.932 39.562 6.178 97.51 20.431 13.016 3.202 26.314 6.921 38.076 0 9.234-5.434 13.098-14.824 15.787-21.36 1.435-3.485 12.285-29.852 0-47.362-6.972-9.937-14.165-6.715-38.075-20.43-17.676-10.14-27.063-15.524-30.647-26.003-6.478-18.943 9.903-41.49 13.93-44.576 32.507-24.902 55.451-26.722 49.883-34.921-2.155-3.174-12.214-6.222-29.9-8.434-49.69-6.215-71.127-1.996-85.918 3.422-14.518 5.317-12.645 10.817-24.146 13.001-21.776 4.137-46.144-12.224-58.506-31.575-9.42-14.744-21.77-45.594-7.43-58.506 43.654-39.301 91.833 5.332 120.013-3.123 5.186-1.556 11.628-.637-3.478-25.677-14.007-23.22-13.887-39.942-13.031-54.187 1.39-23.142 17.918-44.313 10.568-53.264-4.241-5.165-9.577.844-14.997 7.207-2.13 2.5-7.46 10.345-10.557 19.484-2.95 8.704-11.644 7.629-15.702 7.484-17.24-.616-24.978-3.688-32.943-7.484-14.469-6.894-17.657-27.304-17.584-41.813.07-13.857 7.397-24.015 14.859-34.361 5.547-7.691 7.04-7.39 21.36-23.217 18.798-20.778 19.804-25.255 19.501-28.789Z" class="cls-3"/><path d="M108.19 403.243c19.715-6.378 33.719-3.696 51.581-3.533 37.007.337 32.924-10.668 66.42-9.186 12.909.571 27.519 2.825 37.45-6.36 4.485-4.147 5.467-8.27 10.599-9.892 6.61-2.089 12.105 2.497 25.438 10.6 24.737 15.032 29.778 13.805 36.036 23.317 2.12 3.223 8.183 12.436 5.653 21.905-2.221 8.314-9.356 10.418-16.958 17.665-11.589 11.046-14.7 24.924-17.665 38.156-3.341 14.904-8.167 36.434 4.24 55.115 1.717 2.586 12.788 18.705 31.09 21.904 14.748 2.579 25.453-4.76 31.09 1.414 2.67 2.924.548 4.876 2.12 16.958 1.626 12.505 5.718 24.398 7.066 28.264 3.16 9.062 4.778 10.983 3.533 12.719-3.215 4.483-16.724-4.527-35.33-6.36-3.872-.381-29.468-2.518-51.582 14.132-4.509 3.395-20.648 15.927-25.438 38.157-5.525 25.645 7.916 46.279 14.132 55.821 3.308 5.077 21.459 30.056 52.813 35.696 16.344 2.94 22.257.386 60.243-4.606 24.042-3.159 39.31-8.968 42.396-3.533 1.352 2.38-.517 5.147-4.946 14.132-4.964 10.071-11.236 22.794-13.425 31.797-3.018 12.406-.612 27.32 6.359 38.157 6.711 10.432 16.957 15.905 37.45 26.85 13.55 7.238 18.548 8.194 22.61 14.839 5.936 9.706 5.991 25.197-1.412 31.09-6.944 5.527-14.734-1.939-40.276-5.653-21.982-3.196-25.105 1.041-48.05-3.533-2.464-.49-13.892-2.843-27.557-9.185-11.52-5.348-19.032-8.955-20.49-15.546-1.444-6.518 4.493-9.37 10.598-21.904 1.76-3.615 10.46-21.473 6.36-38.863-1.406-5.959-3.588-15.433-15.546-24.024-26.767-19.232-60.623-30.199-79.139-32.504-56.476-7.032-69.445 10.602-98.924-4.24-19.551-9.843-29.69-25.577-40.982-43.102-12.187-18.912-14.77-31.064-33.917-98.924-15.623-55.367-15.337-52.36-16.958-60.767-2.013-10.438-1.802-11.697-2.827-101.75-.112-9.867-.3-26.082 10.6-36.744 3.76-3.68 8.252-6.12 15.544-8.479Z" class="cls-3"/><path d="M279.58 790.738c14.482 2.854 29.512 13.563 28.458 26.946-1.054 13.383-26.876 54.254-50.766 32.01-23.89-22.244-53.053-52.469-26.001-56.086 27.052-3.617 31.798-6.126 48.31-2.87Z" class="cls-4"/><path d="M323.03 761.369c12.263 5.72 16.84 7.001 18.76 7.503 7.66 2.006 13.637 2.253 20.635 2.502 11.475.407 13.783-.83 28.14-.938 19.725-.149 22.142 2.137 23.137 3.439 3.261 4.269.008 9.433-1.876 22.199 0 0-2.069 14.015 0 30.328 1.887 14.884 3.611 28.483 13.444 35.643 10.347 7.536 22.753 2.902 25.95 10.318 1.554 3.603.149 8.227-2.188 10.943-5.366 6.237-16.889 3.868-33.142.313-19.925-4.358-29.887-6.537-32.517-13.445-2.832-7.44 5.486-10.89 8.755-29.077.631-3.513 2.497-15.49-1.25-29.703-1.677-6.357-3.456-13.102-9.068-19.385-5.151-5.767-10.71-7.984-21.26-12.193-12.462-4.972-15.93-4.012-28.536-9.598-5.966-2.643-5.032-2.789-12.982-6.65-2.566-1.246-14.526-6.992-32.138-12.664-5.23-1.685-10.652-3.265-28.582-7.618-38.773-9.414-35.849-7.474-41.743-9.822-14.523-5.784-24.006-14.906-42.972-33.15-9.55-9.185-19.412-18.672-29.875-33.558-10.581-15.053-15.935-27.317-24.555-47.064-6.3-14.432-12.413-28.435-18.007-48.292-8.03-28.5-9.918-51.055-11.05-65.48-1.271-16.195-.848-26.757 0-47.882.776-19.359 2.029-26.785 7.222-33.875 7.812-10.667 19.803-14.102 24.927-15.495 17.768-4.832 23.35 2.97 49.854 4.716 27.482 1.81 51.652-4.594 54.57-5.39 8.087-2.205 15.768-5.03 29.644-7.41 9.722-1.67 16.826-2.838 26.275-2.022 8.47.732 20.629 1.783 30.316 10.78 3.44 3.193 10.355 9.616 9.432 16.842-1.245 9.751-15.36 9.99-26.948 22.233-9.982 10.545-11.673 23.218-14.148 41.77-1.641 12.302-3.973 31.55 4.716 53.223 4.562 11.378 9.423 23.503 21.559 30.99 14.674 9.054 30.299 5.35 33.012 13.474 1.44 4.315-1.506 9.728-4.716 12.8-11.516 11.023-29.75-4.902-50.529.675-24.654 6.616-43.214 40.907-39.748 69.392 1.193 9.811 5.287 17.095 13.474 31.664 5.3 9.431 19.201 34.17 43.313 48.48 6.534 3.878 16.07 8.326 20.695 10.484Z" class="cls-3"/><path d="M84.715 357.029c-4.278-5.823.929-15.895 21.247-49.034 31.958-52.122 47.937-78.183 62.927-95.615 10.525-12.24 31.147-34.87 61.292-58.84 9.65-7.674 38.486-29.965 80.906-51.486 22.05-11.187 51.564-25.934 93.164-35.958 48.379-11.658 87.005-10.64 111.96-9.807 53.512 1.786 92.953 12.202 102.153 14.71 11.014 3.003 56.755 15.961 109.509 47.4 36.39 21.686 59.95 42.531 65.378 47.399 28.193 25.277 17.51 23.178 47.4 50.668 10.675 9.819 20.621 17.98 22.881 31.872.356 2.185 1.878 12.849-5.72 27.785-15.575 30.62-51.427 43.719-73.55 51.486-35.035 12.3-64.493.432-76.047 15.386-9.36 12.114-6.745 41.027-3.006 56.35 4.989 20.439 30.001 19.709 30.019 35.32.035 31.121-22.346 45.093-37.532 50.96-17.156 6.626-19.486 3.986-28.224-10.22-6.132-9.968-7.84-25.552-18.818-44.324-4.24-7.25-4.24-16.65-40.706-56.431-29.081-31.725-48-37.284-51.66-39.233-31.56-16.812-65.007-12.868-81.015-19.327-11.569-4.669-19.478-9.613-21.69-21.11-11.869-61.721-26.865-61.882-37.133-69.012-9.756-6.774-23.12-17.224-32.653-14.636-3.112.844-9.895 2.216-11.784 10.854-6.686 30.58-11.18 35.145-13.076 36.776-5.666 4.872-12.738 4.693-17.979 4.903-20.79.832-49.496 5.829-63.743 21.248-11.893 12.871-3.491 23.156-15.528 33.506-11.789 10.137-29.31 8.406-48.216 6.538-30.163-2.98-37.379-12.386-50.668-6.538-12.939 5.694-10.198 16.414-25.334 28.603-18.552 14.94-47.893 19.148-54.754 9.807Z" class="cls-2"/><path d="M723.078 145.609c17.603 9.876 25.678 16.462 30.054 20.285 17.619 15.395 16.38 21.908 36.064 39.821 11.457 10.427 16.553 12.475 27.799 24.794 10.532 11.536 15.797 17.454 15.778 24.794-.041 15.827-22.276 27.43-33.059 33.059-17.994 9.39-34.45 11.77-47.334 13.524-31.933 4.343-38.781-2.143-54.847 6.01-3.673 1.864-21.464 11.414-27.048 30.053-3.869 12.917-.25 24.772 5.26 42.826 5.346 17.52 10.831 24.36 10.518 39.82-.054 2.663-.365 18.012-6.01 19.536-3.915 1.056-8.68-4.995-16.53-15.778-14.468-19.874-21.597-31.345-27.048-39.07-8.995-12.748-17.517-20.77-34.561-36.815-17.742-16.702-26.614-25.053-38.318-31.556-15.502-8.613-30.92-13.95-53.344-18.783-23.4-5.043-30.796-6.166-35.313-13.524-6.13-9.987-7.26-17.594-10.06-38.798-4.748-35.947-26.621-17.974-39.169-31.878-5.133-5.688-13.528-14.658-24.402-21.738-11.036-7.186-25.892-1.952-29.301-.751-2.117.745-15.665 5.734-22.54 18.783-4.52 8.58-1.85 12.473-7.514 21.037-.87 1.316-5.615 8.305-14.275 12.773-9.406 4.852-14.958 2.36-26.297 3.757-2.042.251-29.051 3.924-42.826 22.54-7.246 9.793-4.298 14.894-12.772 22.54-8.867 7.998-11.786 10.628-15.652 12.153-14.254 5.622-22.42-6.703-38.444-9.148-6.66-1.016-34.634 18.66-43.218 27.96-13.13 14.228-17.817-.857-16.889-6.172.369-2.108 3.71-13.485 13.524-30.053 16.629-28.073 33.06-47.113 34.562-48.836 40.579-46.569 86.905-78.679 89.408-80.393 19.092-13.075 51.636-35.03 99.927-51.842 14.93-5.197 53.158-17.49 104.435-21.037 16.042-1.11 64.656-3.529 125.473 10.519 0 0 60.492 13.972 123.97 49.588Z" class="cls-3"/><path d="M719.848 183c10.107 9.812 19.954 19.895 30.248 29.51 20.67 19.307 26.017 22.104 25.822 28.773-.397 13.575-23.16 22.848-25.084 23.608-21.441 8.477-30.486-3.147-51.643 4.427-18.86 6.751-30.107 22.587-33.2 27.297-12.057 18.366-7.718 31.449-16.23 34.674-9.235 3.5-16.891-10.935-44.265-27.297-8.033-4.801-25.109-14.847-47.954-20.657-26.968-6.858-38.172-1.76-46.479-11.804-5.161-6.24-4.987-16.05-4.426-35.412 1.002-34.654 7.732-36.685 4.426-53.119-4.464-22.193-18.44-26.953-15.493-42.79 2.405-12.919 13.768-20.826 16.969-22.87 9.723-6.208 19.956-6.711 70.086 2.951 45.612 8.792 60.291 13.67 69.35 16.968 26.475 9.64 37.497 17.623 40.576 19.92 4.447 3.316 5.182 4.353 27.297 25.821Z" class="cls-2"/><path d="M559.755 135.784c-9.27 2.167-19.15 4.478-22.133 11.804-3.177 7.806 5.074 12.465 8.853 29.51 3.613 16.296.394 31.532-.737 36.888-3.123 14.78-7.504 17.904-5.165 24.346 3.019 8.313 13.342 11.454 27.297 15.493 27.793 8.045 36.137 1.406 53.857 11.066 9.604 5.237 11.082 9.329 16.968 8.853 12.374-1 12.152-19.595 28.035-27.297 14.567-7.063 23.325 4.423 41.314-3.688 2.299-1.037 17.243-8.028 17.706-18.444.26-5.853-4.2-9.43-18.444-22.133-26.104-23.281-22.052-21.015-36.15-32.461-13.832-11.23-20.748-16.845-28.035-20.657-13.745-7.192-25.346-9.433-37.625-11.805-14.92-2.882-28.848-5.425-45.741-1.475Z" class="cls-3"/><path d="M633.2 181.376c-4.423-2.217-30.33-15.207-40.577-5.902-3.822 3.471-1.156 6.132-4.427 25.821-2.49 14.999-5.204 20.475-4.426 32.461.505 7.78.757 11.67 3.689 14.756 5.612 5.905 13.189 1.216 30.248 4.426 14.399 2.71 15.228 7.223 22.87 5.902 11.293-1.952 11.343-12.128 23.608-17.706 16.56-7.53 32.445 3.754 35.413-1.475 3.443-6.07-16.618-23.607-19.182-25.822-4.829-4.171-6.635-4.992-22.133-15.493-21.782-14.759-20.413-14.627-25.083-16.968ZM168.15 268.695c16.214-20.92 30.811-34 36.744-38.478 76.115-57.448 70.283-59.4 104.024-78.202 13.181-7.346 2.944-.847 64.922-30.248 9.675-4.59 27.906-13.279 53.119-16.969 22.418-3.281 29.244.48 32.461 4.427 6.012 7.376 2.612 19.324 2.213 20.657-4.543 15.214-19.048 16.771-19.181 26.56-.141 10.38 16.107 13.502 15.493 22.87-.563 8.584-14.986 17.843-27.297 16.23-11.803-1.545-12.923-11.939-28.773-19.181-3.954-1.807-16.17-6.774-29.51-4.427-5.01.882-13.623 3.401-42.79 33.2-20.962 21.415-20.08 23.756-28.035 27.296-18.083 8.046-19.692-.247-35.128 9.495-6.81 4.298-27.357-2.449-29.057 21.49-1.492 21.027-7.75 22.286-11.256 22.287-9.311.002-25.155.334-33.777.945-12.763.903-25.676 9.566-28.895 8.063-2.017-.942-2.507-16.685 4.724-26.015Z" class="cls-3"/><path d="M404.826 132.095c-14.533 9.367-22.829 5.946-41.314 11.067-15.11 4.185-14.266 7.772-51.643 30.985-29.275 18.182-31.866 17.27-59.758 35.413-27.843 18.11-14.208 11.83-37.626 27.297-14.377 9.495-22.73 13.984-22.133 19.92.586 5.827 9.652 11.57 16.969 10.328 8.322-1.414 8.583-10.882 19.181-22.133 13.13-13.939 30.542-18.322 36.888-19.92 17.197-4.329 21.18.83 33.2-5.164 4.153-2.071 5.67-3.682 21.394-19.92 22.152-22.875 23.903-24.598 28.035-27.296 5.646-3.688 17.423-11.38 33.199-11.804 11.406-.308 20.04 8.502 33.845 13.345 11.422 4.008 25.825 12.598 22.962 1.41-.48-1.878-7.125-5.694-10.328-15.493-.453-1.384-3.237-10.319.737-18.444 5.394-11.025 18.844-11.587 18.444-16.23-.313-3.637-8.883-7.03-16.968-6.64-10.66.514-15.942 7.387-25.084 13.28ZM479.673 105.878c-5.54 7.124-.15 13.193-6.539 26.155-5.266 10.681-11.511 11.803-11.443 18.8.082 8.43 9.177 9.476 10.626 18.798 1.668 10.736-9.616 14.363-8.991 26.155.5 9.428 7.818 9.108 13.077 22.886 5.66 14.826 1.016 25.233 7.357 28.607 3.358 1.787 8.044.668 10.625-1.635 4.994-4.457 2.771-13.947 1.635-18.799-3.274-13.976-9.774-14.274-12.26-26.972-.664-3.39-2.253-11.506.817-20.434 2.578-7.496 6.173-8.973 5.721-13.895-.661-7.208-8.764-8.285-10.625-15.53-.771-3-.667-7.825 8.173-19.616 14.957-19.949 28.33-24.372 26.973-28.607-1.725-5.383-26.252-7.35-35.146 4.087Z" class="cls-3"/><path d="M234.367 443.446c-7.432 1.313-16.483-.15-34.584-3.074-28.703-4.638-33.035-8.452-43.806-5.38-12.33 3.518-19.853 12.282-23.824 16.908-13.14 15.306-15.172 32.83-16.14 42.27-2.063 20.129 2.952 35.98 13.065 66.862 8.33 25.433 16.266 42.12 27.668 66.094.932 1.96 9.91 20.632 25.361 43.037 15.13 21.94 20.689 24.581 24.593 23.825 1.944-.377 5.647-2.016 13.065-23.825 7.105-20.888 5.469-24.56 10.76-39.195 3.976-11 8.7-24.07 19.981-36.12 12.44-13.29 22.007-13.752 23.056-22.288 1.158-9.414-10.114-11.796-17.676-26.899-8.87-17.715-6.62-40.917.769-56.871 6.562-14.17 14.131-16.046 16.907-30.741.175-.926 3.84-21.334-4.61-26.13-7.235-4.106-14.861 8.044-34.585 11.527Z" class="cls-2"/><path d="M859.325 524.274c-4.18 5.8-5.001 8.841-7.58 15.546-2.456 6.387-1.397 10.074-2.237 14.165-.75 3.653-1.558 9.62 1.474 11.84 3.64 2.665 11.64-.715 15.762-6.005 3.808-4.887 1.322-7.578 4.504-18.764 2.89-10.158 6.204-12.383 5.254-18.764-.548-3.68-5.11-4.989-8.59-4.76-4.475.296-7.267 4.912-8.587 6.742ZM578.533 719.024c-1.015 1.887-2.348 5.796 2.359 18.196 3.84 10.117 5.5 9.55 7.75 16.51 2.022 6.255 4.943 15.29 1.01 22.914-2.801 5.433-7.394 6.87-8.423 13.478-.096.62-.487 3.372.337 6.74 1.365 5.58 4.856 7.907 7.413 11.456 3.355 4.658 3.584 9.395 4.043 18.87.742 15.305-3.997 21.36 0 25.945 1.973 2.263 5.272 3.251 12.13 3.033 16.005-.508 27.181-6.814 48.186-17.185 22.39-11.054 19.317-8.643 28.641-13.815 3.97-2.202 14.607-8.799 35.718-21.902 16.829-10.446 18.138-11.294 21.902-12.468 9.09-2.834 17.428-2.87 19.207-7.75.844-2.316.127-5.24-1.348-7.076-2.149-2.674-5.84-2.946-8.087-3.032-9.907-.381-14.86-.572-23.924 2.695-12.111 4.365-26.944 2.686-56.61-.674-14.61-1.654-23.512-2.732-34.706-7.413-8.654-3.619-15.47-8.05-21.228-11.793-6.997-4.55-10.549-6.896-13.141-10.446-3.274-4.482-4.9-9.455-8.087-19.207-2.591-7.925-3.178-11.524-5.729-12.13-2.601-.618-5.878 2.201-7.413 5.054Z" class="cls-3"/><path d="M559.113 698.072c1.354 6.095 3.108 8.167 6.997 22.346 2.758 10.054 4.805 9.797 7.219 16.973 5.207 15.479 7.383 16.408 8.163 24.489.564 5.843 1.497 15.512-4.898 22.04-4.27 4.36-11.442 1.46-13.469 5.714-1.24 2.602.167 5.626.408 6.122 1.81 3.718 5.535 3.824 8.98 6.123 4.468 2.982 5.836 8.655 8.57 20 1.137 4.712 2.59 10.92 2.45 19.182-.12 7.068-.206 12.095-2.45 18.367-1.568 4.384-3.281 6.835-2.04 8.98 1.813 3.133 8.197 2.612 10.204 2.448 5.165-.42 7.635-2.262 13.469-4.49 4.825-1.842 7.078-2.087 13.469-3.673 11.696-2.902 24.792-7.2 31.835-9.795 13.634-5.023 22.777-10.358 40-20.408 12.195-7.116 10.495-6.883 26.53-16.326 16.284-9.591 24.426-14.387 28.162-16.326 1.939-1.006 7.883-4.066 15.101-8.98.621-.422 5.219-3.578 10.612-8.57 6.14-5.685 6.989-7.895 7.347-9.388.76-3.175.445-7.858-2.449-10.204-2.364-1.916-5.474-1.483-9.796-.816-10.445 1.611-15.668 2.416-19.59 3.265-3.4.736-10.885.636-25.714.408-11.63-.179-18.66-.287-28.98-.816-3.27-.168-15.028-.797-29.794-2.857-9.057-1.264-12.304-2.097-15.918-4.082-5.707-3.134-6.375-5.87-12.653-8.57-5.233-2.252-6.444-1.07-12.652-3.266-4.538-1.605-9.8-3.055-13.061-7.347-5.517-7.26-1.437-13.642-8.572-22.04-2.355-2.773-4.775-4.483-9.795-7.755-9.621-6.27-13.157-5.141-16.734-10.204-2.674-3.782-2.43-6.863-6.123-8.979-2.439-1.398-5.81-1.925-6.53-.816-.693 1.065 1.406 7.921 1.702 9.251Z" class="cls-3"/><path d="M840.085 772.28c.35 10.889-8.916 18.538-31.63 35.971-39.966 30.673-59.949 46.01-74.423 54.577-29.46 17.437-54.316 28.271-66.981 33.49-85.397 35.192-99.432 38.485-109.775 31.63-9.133-6.053-13.27-16.585-16.745-25.427-7.636-19.438-5.556-39.27-4.341-50.856 1.607-15.33 3.938-15.095 2.48-21.087-4.291-17.644-24.183-18.363-29.149-35.971-2.463-8.736 10.573-16.408 14.092-26.61 7.014-20.34 10.082-18.67 13.254-34.527 1.217-6.087 8.167-8.925.462-25.163-5.905-12.445-12.634-56.688-7.635-55.8 16.335 2.904 35.481 1.033 45.646-4.93 3.974-2.331 16.397 28.84 25.558 39.977 11.141 13.544 23.678 21.62 32.981 26.33 14.032 7.104 27.091 16.477 43.108 16.765 13.018.233 9.247-.667 43.816 3.66 47.55 5.952 46.248-4.289 61.524-4.655 27.992-.672 29.655 6.016 34.264 8.29 10.61 5.232 23.044 20.388 23.494 34.336Z" class="cls-2"/><path d="M557.373 672.22c3.721-.28 6.597 2.45 11.962 7.545 2.254 2.14 1.75 2.005 7.157 7.872 3.483 3.781 5.862 6.352 9.064 9.304 2.462 2.269 3.816 3.292 7.395 6.202 8.86 7.202 9.505 8.197 13.359 11.211 5.41 4.232 10.127 6.797 19.56 11.928a256.853 256.853 0 0 0 20.516 10.019c6.275 2.718 13.343 5.754 22.9 8.587 2.483.736 9.957 2.889 20.992 4.771 12.25 2.09 31.976 5.454 55.943 2.788 5.589-.621 14.008-1.86 26.413-1.98 11.881-.116 16.398.901 20.47 3.631.957.643 8.65 5.979 9.904 15.517 1.071 8.151-3.216 14.378-6.273 18.82-1.279 1.857-4.832 6.688-19.48 16.507-5.99 4.016-8.299 5.154-16.177 9.905-29.204 17.611-31.523 22.506-42.26 23.44-4.06.354-8.02.028-13.536 2.312-6.99 2.894-10.803 7.628-13.206 10.235-6.629 7.19-9.625 5.883-40.28 20.8-19.39 9.435-16.903 9.33-26.412 13.206-12.73 5.187-21.197 7.008-34.666 9.904-19.969 4.294-24.174 3.019-26.742.66-3-2.754-3.431-7.008-4.292-15.517-.278-2.742-.574-7.118.66-23.11.452-5.867.988-11.71 1.32-20.47.316-8.328.123-10.718-.99-13.537-1.223-3.096-2.418-3.83-9.574-11.885-8.765-9.864-9.487-11.594-9.905-12.876-2.434-7.47.682-14.486 1.32-15.848 2.397-5.11 5.065-5.56 8.254-9.904 4.192-5.709 4.509-11.636 4.953-22.781.145-3.65.426-14.811-2.311-30.044-4.026-22.405-4.622-24.762-4.623-24.762-1.28-5.06-2.597-9.397-.66-14.196 1.402-3.474 4.805-7.92 9.245-8.254ZM837.813 706.686c-5.405.561-10.87.224-16.291.581-2.642.174-5.059.375-6.982-1.163-2.183-1.747-2.21-4.519-2.909-8.727 0 0-.747-4.5-3.49-12.8-2.333-7.057-6.56-11.55-10.473-15.71-2.829-3.005-9.546-9.991-20.364-13.963-7.216-2.648-8.053-.945-18.618-3.49-6.715-1.619-12.326-4.01-23.272-8.728-12.117-5.221-20.754-9.65-25.6-12.218-17.517-9.28-20.428-12.734-22.108-15.127-1.392-1.98-6.144-8.938-5.818-18.036.158-4.425 1.39-5.808 4.654-14.545 4.118-11.024 6.664-17.839 7.564-26.181 1.241-11.508-1.423-18.746 1.163-19.782 2.227-.891 4.192 4.475 11.636 8.146 8.252 4.068 16.46 2.713 18.618 2.327 3.342-.598 7.727-1.383 11.636-4.655 5.547-4.642 4.149-9.281 10.473-22.108 3.377-6.85 5.127-10.301 8.145-11.637 6.799-3.008 12.262 4.144 19.782 1.746 3.702-1.18 6.203-5.264 11.054-13.382 10.168-17.015 15.261-25.56 15.71-27.345 3.252-12.965.057-24.389-1.746-30.836-2.737-9.784-8.07-20.73-9.31-23.272-5.44-11.165-8.632-14.742-6.98-18.618 1.946-4.573 8.54-4.648 18.617-6.982 14.265-3.303 24.41-7.806 35.49-14.545 21.24-12.917 22.049-23.705 47.239-33.943 0 0 16.777-7.03 27.355 4.126 9.326 9.835 15.041 26.395 18.732 40.027 1.415 5.223 2.53 10.538 3.871 15.816 7.014 27.581-2.906 32.259-1.351 48.155 1.658 16.944 8.712 12.02 9.721 32.216.679 13.565 1.103 30.277 1.03 33.585-1.021 46.599-9.11 88.219-23.349 128.644-4.671 13.264-13.932 29.831-24.055 40.114-18.177 18.464-54.632 21.775-59.774 22.31Z" class="cls-3"/><path d="M865.344 528.26c-.757.295-2.29 1.057-3.928 3.702-.68 1.1-1.58 2.846-2.72 9.67-.927 5.552-.667 6.403-.076 6.951 1.276 1.181 4.052.914 5.364-.453.951-.99.458-1.854 1.134-4.986.272-1.266.786-3.65 2.19-6.044 1.44-2.454 2.387-2.49 2.796-4.307.308-1.369.29-3.665-1.133-4.608-1.268-.84-2.994-.17-3.627.076Z" class="cls-3"/></g><g><path d="M201.171 345.198c.63.047 10.086.43 10.765.473 10.427.673 17.044.213 19.625 0 7.063-.582 12.295-1.657 13.738-1.962 6.195-1.311 11.563-3.365 20.28-6.542 6.183-2.254 7.792-3.022 11.12-3.27 1.114-.084 5.66-.351 12.43 1.962 4.95 1.69 7.572 3.56 17.662 10.466 12.148 8.315 7.958 5.34 14.392 9.813 7.987 5.552 9.058 6.393 17.663 12.43q16.087 11.285 20.28 14.391c6.623 4.907 5.03 5.018 15.046 13.738a8425.663 8425.663 0 0 0 15.046 13.084c8.953 7.735 10.972 9.415 11.12 12.429.125 2.52-1.157 4.005-7.85 12.43-9.679 12.183-7.246 9.389-9.812 12.429-8.243 9.764-8.897 9.632-15.046 17.008-4.032 4.837-8.38 10.091-13.084 17.663-3.14 5.054-5.28 8.498-7.196 13.738-1.749 4.783-3.987 10.902-3.27 18.97.288 3.25 1.04 10.602 6.541 17.664 5.406 6.94 12.264 9.575 15.046 10.466 3.368 1.08 13.061 4.187 18.971-.654 2.066-1.691 5.065-4.547 7.149-11.247 3.903-12.547 4.414-14.044 6.41-17.912 3.705-7.182 12.966-7.467 14.318-7.515 2.772-.1 8.552.95 12.041 4.52 2.853 2.918 2.1 6.283 1.737 14.377-.547 12.236-2.762 21.076-3.058 23.665-1.258 11.013-2.067 18.094-1.308 26.821.685 7.888 2.855 14.854 7.195 28.784 3.558 11.42 5.337 17.129 8.505 24.205 7.33 16.372 13.859 22.729 11.12 26.82-1.885 2.819-5.547.648-15.045 3.272-3.181.878-11.394 3.242-18.317 9.812-5.65 5.363-7.906 11.122-10.467 17.663-3.103 7.925-.427 5.719-4.58 22.242-.63 2.512-1.274 4.876 0 6.542 1.949 2.546 6.915 1.547 13.084.654 6.722-.973 13.555-1.012 20.28-1.963 6.632-.937 18.748-2.65 32.054-2.616 6.487.017 13.047.665 26.167 1.962 20.796 2.056 16.802 2.222 20.934 2.617 2.892.276 6.857 2.163 9.483 2.997 3.685 1.169 2.021 6.732.412 14.258-1.609 7.528-2.3 8.652-5.316 15.454-1.38 3.113-4.676 9.762-11.12 16.354-3.353 3.43-3.92 3.123-18.972 14.392-7.902 5.917-10.324 7.932-11.775 11.775-2.08 5.509-.643 10.742 0 13.084 2.178 7.935 7.59 12.825 13.084 17.663 5.675 4.998 6.709 4.244 15.046 11.12 4.767 3.933 7.406 6.11 10.466 9.813 2.142 2.592 6.613 8.108 9.159 16.355.513 1.66 1.27 4.475 1.962 13.737.568 7.59.624 13.23.655 21.588.042 11.45-.017 13 0 28.13.006 5.44.018 9.523 0 16.354-.015 5.32-.04 9.704-.062 12.658M67.916 372.366c3.603.654 7.792 1.22 13.839 1.435 7.766.277 13.528-.403 20.933-1.308 6.439-.788 13.555-1.658 22.896-3.926 13.2-3.203 26.037-12.347 32.406-16.7" class="cls-5"/><g><path d="M168.524 341.6c2.11 0 3.821 1.748 3.821 3.905s-1.71 3.906-3.821 3.906-3.822-1.749-3.822-3.906 1.711-3.906 3.822-3.906M184.441 333.034c2.111 0 3.822 1.748 3.822 3.906s-1.711 3.905-3.822 3.905-3.821-1.748-3.821-3.905 1.71-3.906 3.821-3.906M177.143 355.558c-2.752-.602-5.054-2.4-6.346-4.948a5.396 5.396 0 0 1-3.268.412c1.565 3.928 4.885 6.782 8.958 7.673.893.195 1.807.292 2.714.286a5.669 5.669 0 0 1-1.119-3.265 9.39 9.39 0 0 1-.937-.156l-.002-.002ZM183.58 351.673c2.11 0 3.822 1.75 3.822 3.906s-1.711 3.906-3.822 3.906-3.822-1.749-3.822-3.906 1.711-3.906 3.822-3.906M188.897 354.144a12.939 12.939 0 0 0 2.43-5.266 13.034 13.034 0 0 0-1.802-9.729 5.59 5.59 0 0 1-2.15 2.573 9.74 9.74 0 0 1-.306 9.511 5.613 5.613 0 0 1 1.83 2.911h-.002ZM168.228 339.903a5.365 5.365 0 0 1 1.445.119 5.392 5.392 0 0 1 1.745.717c1.722-2.53 4.496-4.048 7.506-4.104a5.72 5.72 0 0 1 1.159-3.166c-4.806-.389-9.477 2.145-11.855 6.434" class="cls-7"/></g><g><circle cx="380.539" cy="309.929" r="4.804" class="cls-6"/><g><path d="M786.308 702.225c-20.18 9.32-43.508 14.64-68.362 14.64-65.544 0-120.452-35.737-135.83-84.194l-.16-.08a117.484 117.484 0 0 1-33.925 8.778 119.43 119.43 0 0 1-12.426.658c-8.017 0-15.847-.802-23.416-2.323l13.344 59.395c-37.585-6.894-66.508-8.86-111.928 0 1.402-12.78 9.755-25.644 22.007-32.119a38.445 38.445 0 0 1 18.018-4.46 38.433 38.433 0 0 1 21.18 6.33s-77.902-130.031-14.922-199.418c17.864-18.838 43.893-28.967 71.238-23.403" class="cls-6"/><path d="M786.077 701.725c-175.46-24.718-135.592-138.224-135.592-138.224 32.6-105.244-57.876-219.954-171.281-231.18 0 0-20.243-1.31-35.504-17.927-11.458-12.477-14.857-22.533-16.17-41.553-1.577-22.852-18.625-28.614-20.144-29.421a1.581 1.581 0 0 0-2.168.695L384.94 285.79l-66.557 24.51a7.882 7.882 0 0 0-5.114 8.227l1.764 16.645a3.934 3.934 0 0 0 2.045 3.044c40.492 21.926 76.235 51.5 105.293 86.787l.355.291.003.003-.056.07-26.232 32.472-22.417 27.749c-4.348 5.252-6.814 9.453-7.858 15.372-1.843 10.457 3.376 20.52 12.226 25.312a23.914 23.914 0 0 0 5.223 2.076 1.58 1.58 0 0 0 1.955-1.256l4.979-28.236 73.458-33.47" class="cls-6"/></g></g></g><circle cx="500" cy="500" r="450" fill="none"/></svg>